<svg xmlns="http://www.w3.org/2000/svg" width="486.969" height="127.156" viewBox="0 0 486.969 127.156">
  <defs>
    <style>
      .cls-1 {
        fill: #fff;
        fill-rule: evenodd;
      }
    </style>
  </defs>
  <path id="fooof" class="cls-1" d="M109.713,15.015A125.036,125.036,0,0,0,90.221,8.167,89.758,89.758,0,0,0,71.593,5.261c-12.262-.513-19.53,1.758-21.73,6.941-2.293,5.163.475,13.076,5.74,23.284,1.7,3.309,3.45,6.762,5.2,10.354s3.461,7.269,5.11,11.03q-4.941.382-9.886,0.777C51,53.631,45.622,49.522,39.789,45.3c10.228,17.954,14.939,35.3,17.55,53.213q4.729-8.966,8.924-17.425,4.13-1.093,8.266-2.153c1.135,3.5,2.44,7.814,3.779,12.957s3.144,12.671,5.055,22.849q-8.44,8.43-16.98,17.618c21.361-5.237,42.794-10.1,64.28-14.423q-7.107-2.484-14.234-5.03c-1.565-6.334-3.008-12.889-4.519-19.681s-3.1-13.846-5.04-21.209q7.03-1.454,14.076-2.828c4.788,3.964,9.351,7.854,13.767,11.693a174.022,174.022,0,0,0-.12-40.954q-6.124,6.369-12.435,12.982-10.17.7-20.348,1.467-0.42-1.057-.764-2.2c-0.231-.759-0.509-1.722-0.852-2.89-1.947-6.6-3.069-11.413-2.6-14.343,0.447-2.933,2.553-4.387,6.429-4.369a18.048,18.048,0,0,1,7.46,1.652,22.171,22.171,0,0,1,6.689,4.819,204.257,204.257,0,0,0,5.781-29.833q-7.219,3.859-14.238,7.8M165.665,56.4a48.381,48.381,0,0,1,14.606-6.47A9.573,9.573,0,0,1,183,52.948a9.814,9.814,0,0,1,1.173,3.841c0.358,3.59-.984,6.67-3.914,9.309a17.507,17.507,0,0,1-11.083,4.351,16.974,16.974,0,0,1-6.826-.862,15.05,15.05,0,0,1-5.456-3.6,27.727,27.727,0,0,1,8.774-9.592m47.145-7.834c-8.478-6.417-19.489-9.79-32.205-9.716-13.532.075-23.678,3.738-30.612,11.269-6.977,7.527-9.589,17.276-9.062,29.1,0.5,11.158,4.161,20.3,11.793,26.868,7.6,6.6,17.422,9.007,29.6,7.492a52.316,52.316,0,0,0,20.572-7.3,55.028,55.028,0,0,0,16.16-14.384,33.2,33.2,0,0,0,4.807-8.91,29.613,29.613,0,0,0,1.628-9.829C225.486,63.066,221.3,55,212.81,48.563m42.783,5.858a57.621,57.621,0,0,1,15.265-5.6,7.7,7.7,0,0,1,2.312,2.814,8.149,8.149,0,0,1,.725,3.538c-0.025,3.291-1.613,6.069-4.725,8.374a19.126,19.126,0,0,1-11.333,3.583,18.5,18.5,0,0,1-6.735-.976,14.059,14.059,0,0,1-5.149-3.355,29.133,29.133,0,0,1,9.64-8.381m47.715-6.277c-7.568-6.216-17.8-9.442-30.362-9.478-13.337-.043-24.071,3.239-32.025,9.86-7.978,6.623-11.659,15.137-11.707,25.492-0.041,9.774,3.595,17.827,11.239,23.943,7.634,6.135,17.533,8.851,29.767,8.379a52.841,52.841,0,0,0,20.633-5.056,46.82,46.82,0,0,0,16.2-12.137,29.086,29.086,0,0,0,4.919-8.089,28.137,28.137,0,0,0,1.92-9.237,27.488,27.488,0,0,0-10.587-23.678m41.959,6.672a64.375,64.375,0,0,1,15.895-5.173,6.87,6.87,0,0,1,1.981,2.891,8.285,8.285,0,0,1,.355,3.594q-0.519,4.99-5.413,8.28a19.208,19.208,0,0,1-11.557,3.085,18.8,18.8,0,0,1-6.682-1.265,13.715,13.715,0,0,1-4.93-3.5,31.27,31.27,0,0,1,10.351-7.912m48.527-5.09c-6.78-6.661-16.444-10.035-29.04-10.233-13.336-.209-24.673,2.926-33.461,9.182S318.024,62.948,317.581,72.83c-0.409,9.331,3.251,17.176,10.933,23.748s17.652,10.352,29.914,11.3a46.781,46.781,0,0,0,20.646-2.889,38.894,38.894,0,0,0,16.2-11.374,29.807,29.807,0,0,0,5.009-8.392,34.343,34.343,0,0,0,2.188-9.907c0.8-10.38-1.873-18.923-8.677-25.585M502.367,19.933a34.407,34.407,0,0,0-11.639-5.75,54.776,54.776,0,0,0-15.091-1.966c-11.542-.029-21.583,2.144-29.408,6.4s-13.185,10.462-15.642,18.611a58.133,58.133,0,0,0-1.845,8.333,75.8,75.8,0,0,0-.773,9.035q-4.93-.093-9.852-0.172-4.583-5.2-9.049-10.239c-1.1,13.711-.671,27.352.355,41.729,3.674-4.015,7.411-8.046,11.27-12.11q4.278-.241,8.566-0.475c0.381,3.048.936,6.83,1.716,11.432s2.067,11.408,3.972,20.961q-8.593,4.855-17.17,9.587,32.577,4.131,65.139,11.393-7.239-6.06-14.478-11.42c-1.617-7.208-3-14.342-4.024-21.461a164.088,164.088,0,0,1-1.751-21.449q7.29-.23,14.619-0.453c3.647,4.711,7.39,9.634,11.221,14.84,3.48-14.772,8.213-28.856,16-42.626-7.054,4.044-13.66,8.024-19.95,11.934q-10.35-.281-20.642-0.514a15.864,15.864,0,0,1,.305-2.045c0.15-.7.364-1.589,0.654-2.661,1.638-6.05,4.019-10.329,6.681-12.925a13.176,13.176,0,0,1,9.8-3.764,10.524,10.524,0,0,1,6.014,1.681,7.6,7.6,0,0,1,2.885,4.732,259.566,259.566,0,0,1,36.51-28.23c-8.519,2.566-16.621,5.1-24.388,7.595" transform="translate(-39.781 -5.188)"/>
</svg>
